<svg width="399" height="334" viewBox="0 0 399 334" fill="none" xmlns="http://www.w3.org/2000/svg">
    <path fill-rule="evenodd" clip-rule="evenodd" d="M148 17C123.147 17 103 37.1472 103 62V253C103 277.853 123.147 298 148 298C172.853 298 193 277.853 193 253V104H206V253C206 277.853 226.147 298 251 298C275.853 298 296 277.853 296 253V62C296 37.1472 275.853 17 251 17H226H173H148ZM0 146C0 121.147 20.1472 101 45 101H90V289C90 313.853 69.8528 334 45 334H0V146ZM309 101H354C378.853 101 399 121.147 399 146V334H354C329.147 334 309 313.853 309 289V101Z" fill="#313131"/>
    <rect x="103" y="310" width="193" height="24" rx="12" fill="#04B0D6"/>
    <path d="M399 43.1053C399 51.6307 396.361 59.9646 391.416 67.0533C386.471 74.1419 379.443 79.6668 371.221 82.9293C362.998 86.1919 353.95 87.0455 345.221 85.3823C336.492 83.719 328.474 79.6137 322.18 73.5853C315.887 67.5569 311.601 59.8763 309.865 51.5147C308.128 43.1531 309.019 34.486 312.425 26.6096C315.831 18.7331 321.599 12.001 328.999 7.26455C336.4 2.52808 345.1 -1.01665e-07 354 0L354 43.1053H399Z" fill="#14F4BF"/>
</svg>