<svg width="201" height="48" viewBox="0 0 201 48" fill="none" xmlns="http://www.w3.org/2000/svg">
<g id="Vector">
<path d="M21.257 2.44311C17.6874 2.44311 14.7937 5.33852 14.7937 8.91018V36.3593C14.7937 39.9309 17.6874 42.8263 21.257 42.8263C24.8266 42.8263 27.7203 39.9309 27.7203 36.3593V14.9461H29.5875V36.3593C29.5875 39.9309 32.4812 42.8263 36.0507 42.8263C39.6203 42.8263 42.514 39.9309 42.514 36.3593V8.91018C42.514 5.33852 39.6203 2.44311 36.0507 2.44311H21.257Z" fill="#313131"/>
<path d="M0 20.982C0 17.4104 2.89371 14.515 6.46328 14.515H12.9266V41.5329C12.9266 45.1046 10.0329 48 6.46328 48H0V20.982Z" fill="#313131"/>
<path d="M44.3812 14.515H50.8445C54.4141 14.515 57.3078 17.4104 57.3078 20.982V48H50.8445C47.2749 48 44.3812 45.1046 44.3812 41.5329V14.515Z" fill="#313131"/>
<path d="M14.7937 46.2755C14.7937 45.323 15.5654 44.5509 16.5173 44.5509H40.7905C41.7424 44.5509 42.514 45.323 42.514 46.2755C42.514 47.2279 41.7424 48 40.7905 48H16.5173C15.5654 48 14.7937 47.2279 14.7937 46.2755Z" fill="#04B0D6"/>
<path d="M57.3078 6.19477C57.3078 7.41998 56.9287 8.61767 56.2185 9.6364C55.5083 10.6551 54.4989 11.4491 53.3179 11.918C52.1369 12.3869 50.8373 12.5095 49.5836 12.2705C48.3298 12.0315 47.1782 11.4415 46.2743 10.5751C45.3703 9.70878 44.7548 8.60498 44.5054 7.40331C44.256 6.20164 44.384 4.95608 44.8732 3.82413C45.3624 2.69219 46.1908 1.7247 47.2537 1.04401C48.3166 0.363317 49.5662 -1.46105e-08 50.8445 0V6.19477H57.3078Z" fill="#14F4BF"/>
<path d="M76.053 26.6305H71.7143L71.0708 28.5988H66.7872L71.5488 15.575H76.2552L80.9984 28.5988H76.6965L76.053 26.6305ZM75.0602 23.5585L73.8836 19.9347L72.707 23.5585H75.0602Z" fill="#313131"/>
<path d="M88.4706 28.5988L86.0254 23.9264H86.007V28.5988H81.9257V15.575H87.9926C89.0466 15.575 89.9474 15.7651 90.6951 16.1452C91.4427 16.5131 92.0004 17.0221 92.368 17.672C92.748 18.3097 92.938 19.0333 92.938 19.8427C92.938 20.7134 92.6928 21.486 92.2026 22.1605C91.7246 22.835 91.0321 23.3194 90.1251 23.6137L92.9564 28.5988H88.4706ZM86.007 21.2039H87.6249C88.0171 21.2039 88.3112 21.1181 88.5073 20.9464C88.7034 20.7624 88.8015 20.4804 88.8015 20.1002C88.8015 19.7568 88.6973 19.487 88.4889 19.2908C88.2928 19.0946 88.0048 18.9965 87.6249 18.9965H86.007V21.2039Z" fill="#313131"/>
<path d="M102.257 20.6337V24H93.6903V20.6337H102.257Z" fill="#313131"/>
<path d="M111.379 28.5988L108.934 23.9264H108.916V28.5988H104.834V15.575H110.901C111.955 15.575 112.856 15.7651 113.604 16.1452C114.351 16.5131 114.909 17.0221 115.277 17.672C115.657 18.3097 115.847 19.0333 115.847 19.8427C115.847 20.7134 115.602 21.486 115.111 22.1605C114.633 22.835 113.941 23.3194 113.034 23.6137L115.865 28.5988H111.379ZM108.916 21.2039H110.534C110.926 21.2039 111.22 21.1181 111.416 20.9464C111.612 20.7624 111.71 20.4804 111.71 20.1002C111.71 19.7568 111.606 19.487 111.398 19.2908C111.202 19.0946 110.914 18.9965 110.534 18.9965H108.916V21.2039Z" fill="#313131"/>
<path d="M123.493 28.7276C122.268 28.7276 121.14 28.4394 120.11 27.863C119.093 27.2866 118.284 26.4895 117.684 25.4716C117.083 24.4538 116.783 23.3071 116.783 22.0317C116.783 20.7563 117.083 19.6097 117.684 18.5918C118.284 17.5739 119.093 16.7829 120.11 16.2188C121.14 15.6424 122.268 15.3543 123.493 15.3543C124.719 15.3543 125.84 15.6424 126.858 16.2188C127.875 16.7829 128.678 17.5739 129.266 18.5918C129.866 19.6097 130.167 20.7563 130.167 22.0317C130.167 23.3071 129.866 24.4538 129.266 25.4716C128.678 26.4895 127.869 27.2866 126.839 27.863C125.822 28.4394 124.707 28.7276 123.493 28.7276ZM123.493 24.9198C124.302 24.9198 124.927 24.6622 125.368 24.1472C125.81 23.6198 126.03 22.9147 126.03 22.0317C126.03 21.1365 125.81 20.4313 125.368 19.9163C124.927 19.3889 124.302 19.1253 123.493 19.1253C122.672 19.1253 122.041 19.3889 121.6 19.9163C121.158 20.4313 120.938 21.1365 120.938 22.0317C120.938 22.9147 121.158 23.6198 121.6 24.1472C122.041 24.6622 122.672 24.9198 123.493 24.9198Z" fill="#313131"/>
<path d="M147.284 15.575V28.5988H143.221V22.1053L141.217 28.5988H137.724L135.72 22.1053V28.5988H131.639V15.575H136.64L139.508 23.393L142.302 15.575H147.284Z" fill="#313131"/>
<path d="M153.115 15.575V22.9147C153.115 23.5156 153.244 23.9939 153.501 24.3495C153.771 24.6929 154.2 24.8646 154.788 24.8646C155.377 24.8646 155.812 24.6929 156.094 24.3495C156.375 23.9939 156.516 23.5156 156.516 22.9147V15.575H160.579V22.9147C160.579 24.1533 160.322 25.2141 159.807 26.0971C159.292 26.9678 158.588 27.6239 157.693 28.0653C156.798 28.5068 155.799 28.7276 154.696 28.7276C153.593 28.7276 152.613 28.5068 151.755 28.0653C150.909 27.6239 150.247 26.9678 149.769 26.0971C149.291 25.2263 149.052 24.1656 149.052 22.9147V15.575H153.115Z" fill="#313131"/>
<path d="M167.432 28.7276C165.876 28.7276 164.589 28.3658 163.571 27.6423C162.566 26.9064 162.021 25.8334 161.935 24.4231H166.274C166.335 25.1712 166.666 25.5452 167.267 25.5452C167.487 25.5452 167.671 25.4961 167.818 25.398C167.978 25.2877 168.057 25.1221 168.057 24.9014C168.057 24.5948 167.892 24.3495 167.561 24.1656C167.23 23.9693 166.715 23.7486 166.017 23.5033C165.183 23.209 164.491 22.9208 163.939 22.6388C163.4 22.3567 162.934 21.9459 162.542 21.4063C162.15 20.8667 161.96 20.1738 161.972 19.3276C161.972 18.4814 162.186 17.764 162.615 17.1754C163.057 16.5745 163.651 16.1207 164.399 15.8141C165.159 15.5075 166.01 15.3543 166.954 15.3543C168.547 15.3543 169.81 15.7222 170.741 16.458C171.685 17.1938 172.181 18.23 172.231 19.5668H167.837C167.824 19.1989 167.732 18.9352 167.561 18.7758C167.389 18.6163 167.181 18.5366 166.936 18.5366C166.764 18.5366 166.623 18.5979 166.513 18.7206C166.403 18.8309 166.347 18.9904 166.347 19.1989C166.347 19.4932 166.507 19.7384 166.825 19.9347C167.156 20.1186 167.677 20.3455 168.388 20.6153C169.209 20.9219 169.883 21.2162 170.41 21.4983C170.95 21.7803 171.415 22.1727 171.808 22.6755C172.2 23.1783 172.396 23.8099 172.396 24.5703C172.396 25.3674 172.2 26.0848 171.808 26.7225C171.415 27.3479 170.846 27.8385 170.098 28.1941C169.35 28.5498 168.462 28.7276 167.432 28.7276Z" fill="#313131"/>
<path d="M185.872 15.575V28.5988H181.79V23.5217H177.911V28.5988H173.83V15.575H177.911V20.2658H181.79V15.575H185.872Z" fill="#313131"/>
<path d="M196.055 26.6305H191.716L191.072 28.5988H186.789L191.55 15.575H196.257L201 28.5988H196.698L196.055 26.6305ZM195.062 23.5585L193.885 19.9347L192.709 23.5585H195.062Z" fill="#313131"/>
<path d="M70.8962 35.8063C71.2393 35.8676 71.5304 36.0485 71.7694 36.3489C72.0084 36.6494 72.1279 36.9897 72.1279 37.3699C72.1279 37.6949 72.0421 37.9892 71.8705 38.2528C71.7051 38.5104 71.463 38.7158 71.1444 38.8691C70.8257 39.0162 70.4549 39.0898 70.0321 39.0898H67.4767V32.6975H69.9126C70.3477 32.6975 70.7215 32.7711 71.034 32.9182C71.3466 33.0654 71.5825 33.2647 71.7419 33.5161C71.9012 33.7613 71.9809 34.0373 71.9809 34.3439C71.9809 34.7118 71.8828 35.0183 71.6867 35.2636C71.4906 35.5089 71.2271 35.6898 70.8962 35.8063ZM68.5246 35.3832H69.8207C70.1638 35.3832 70.4304 35.3065 70.6204 35.1532C70.8165 34.9938 70.9146 34.7669 70.9146 34.4726C70.9146 34.1844 70.8165 33.9606 70.6204 33.8012C70.4304 33.6356 70.1638 33.5529 69.8207 33.5529H68.5246V35.3832ZM69.9402 38.2344C70.2956 38.2344 70.5744 38.1486 70.7767 37.9769C70.9789 37.8052 71.08 37.5661 71.08 37.2595C71.08 36.9468 70.9728 36.6984 70.7583 36.5145C70.5438 36.3305 70.2588 36.2386 69.9034 36.2386H68.5246V38.2344H69.9402Z" fill="#313131"/>
<path d="M77.9088 36.4317C77.9088 36.6218 77.8965 36.7935 77.872 36.9468H74.0021C74.0327 37.3515 74.1828 37.6765 74.4525 37.9217C74.7221 38.167 75.053 38.2896 75.4452 38.2896C76.009 38.2896 76.4074 38.0536 76.6402 37.5814H77.7709C77.6177 38.0474 77.3388 38.4307 76.9344 38.7311C76.536 39.0254 76.0397 39.1726 75.4452 39.1726C74.9611 39.1726 74.526 39.0653 74.1399 38.8507C73.76 38.6299 73.4597 38.3234 73.2391 37.9309C73.0246 37.5324 72.9174 37.0725 72.9174 36.5513C72.9174 36.0301 73.0216 35.5733 73.2299 35.1808C73.4444 34.7823 73.7416 34.4757 74.1216 34.2611C74.5076 34.0465 74.9489 33.9392 75.4452 33.9392C75.9232 33.9392 76.3491 34.0434 76.723 34.2519C77.0968 34.4604 77.3879 34.7547 77.5962 35.1348C77.8046 35.5089 77.9088 35.9412 77.9088 36.4317ZM76.8149 36.1006C76.8088 35.7143 76.6709 35.4046 76.4012 35.1716C76.1316 34.9386 75.7976 34.8221 75.3993 34.8221C75.0377 34.8221 74.7282 34.9386 74.4709 35.1716C74.2135 35.3985 74.0603 35.7082 74.0113 36.1006H76.8149Z" fill="#313131"/>
<path d="M79.9879 34.7578C80.1411 34.5002 80.3434 34.3009 80.5946 34.1599C80.852 34.0127 81.1553 33.9392 81.5046 33.9392V35.0245H81.2381C80.8275 35.0245 80.5149 35.1287 80.3005 35.3372C80.0921 35.5457 79.9879 35.9075 79.9879 36.4225V39.0898H78.94V34.0219H79.9879V34.7578Z" fill="#313131"/>
<path d="M83.001 33.3505C82.8111 33.3505 82.6517 33.2861 82.523 33.1574C82.3943 33.0286 82.33 32.8692 82.33 32.6791C82.33 32.489 82.3943 32.3296 82.523 32.2008C82.6517 32.072 82.8111 32.0077 83.001 32.0077C83.1849 32.0077 83.3411 32.072 83.4698 32.2008C83.5985 32.3296 83.6629 32.489 83.6629 32.6791C83.6629 32.8692 83.5985 33.0286 83.4698 33.1574C83.3411 33.2861 83.1849 33.3505 83.001 33.3505ZM83.5158 40.0832C83.5158 40.5798 83.3902 40.9385 83.1389 41.1593C82.8938 41.3862 82.5353 41.4996 82.0634 41.4996H81.5211V40.6166H81.8796C82.0941 40.6166 82.2442 40.5737 82.33 40.4879C82.4219 40.4081 82.4679 40.2732 82.4679 40.0832V34.0219H83.5158V40.0832Z" fill="#313131"/>
<path d="M84.5423 36.5329C84.5423 36.024 84.6465 35.5733 84.8548 35.1808C85.0693 34.7884 85.3574 34.4849 85.7189 34.2703C86.0866 34.0495 86.4911 33.9392 86.9323 33.9392C87.3306 33.9392 87.6769 34.0189 87.971 34.1783C88.2713 34.3316 88.5103 34.5247 88.688 34.7578V34.0219H89.7451V39.0898H88.688V38.3356C88.5103 38.5748 88.2682 38.774 87.9618 38.9335C87.6554 39.0929 87.3061 39.1726 86.9139 39.1726C86.4788 39.1726 86.0805 39.0622 85.7189 38.8415C85.3574 38.6146 85.0693 38.3019 84.8548 37.9033C84.6465 37.4986 84.5423 37.0418 84.5423 36.5329ZM88.688 36.5513C88.688 36.2018 88.6145 35.8983 88.4674 35.6407C88.3264 35.3832 88.1395 35.187 87.9067 35.0521C87.6738 34.9172 87.4225 34.8497 87.1529 34.8497C86.8833 34.8497 86.632 34.9172 86.3991 35.0521C86.1663 35.1808 85.9763 35.374 85.8292 35.6315C85.6883 35.8829 85.6178 36.1834 85.6178 36.5329C85.6178 36.8824 85.6883 37.189 85.8292 37.4526C85.9763 37.7163 86.1663 37.9187 86.3991 38.0597C86.6381 38.1946 86.8894 38.262 87.1529 38.262C87.4225 38.262 87.6738 38.1946 87.9067 38.0597C88.1395 37.9248 88.3264 37.7286 88.4674 37.471C88.6145 37.2074 88.688 36.9008 88.688 36.5513Z" fill="#313131"/>
<path d="M95.6808 34.0219L92.5739 41.472H91.4892L92.5187 39.007L90.524 34.0219H91.6914L93.1162 37.8849L94.5962 34.0219H95.6808Z" fill="#313131"/>
<path d="M96.1224 36.5329C96.1224 36.024 96.2265 35.5733 96.4349 35.1808C96.6494 34.7884 96.9374 34.4849 97.299 34.2703C97.6666 34.0495 98.0711 33.9392 98.5123 33.9392C98.9107 33.9392 99.2569 34.0189 99.551 34.1783C99.8513 34.3316 100.09 34.5247 100.268 34.7578V34.0219H101.325V39.0898H100.268V38.3356C100.09 38.5748 99.8483 38.774 99.5419 38.9335C99.2355 39.0929 98.8861 39.1726 98.4939 39.1726C98.0588 39.1726 97.6605 39.0622 97.299 38.8415C96.9374 38.6146 96.6494 38.3019 96.4349 37.9033C96.2265 37.4986 96.1224 37.0418 96.1224 36.5329ZM100.268 36.5513C100.268 36.2018 100.195 35.8983 100.047 35.6407C99.9065 35.3832 99.7196 35.187 99.4867 35.0521C99.2538 34.9172 99.0026 34.8497 98.7329 34.8497C98.4633 34.8497 98.2121 34.9172 97.9792 35.0521C97.7463 35.1808 97.5563 35.374 97.4093 35.6315C97.2683 35.8829 97.1978 36.1834 97.1978 36.5329C97.1978 36.8824 97.2683 37.189 97.4093 37.4526C97.5563 37.7163 97.7463 37.9187 97.9792 38.0597C98.2182 38.1946 98.4694 38.262 98.7329 38.262C99.0026 38.262 99.2538 38.1946 99.4867 38.0597C99.7196 37.9248 99.9065 37.7286 100.047 37.471C100.195 37.2074 100.268 36.9008 100.268 36.5513Z" fill="#313131"/>
<path d="M104.74 36.5329C104.74 36.024 104.844 35.5733 105.053 35.1808C105.267 34.7884 105.555 34.4849 105.917 34.2703C106.284 34.0495 106.692 33.9392 107.139 33.9392C107.47 33.9392 107.795 34.0127 108.114 34.1599C108.438 34.3009 108.696 34.491 108.886 34.7302V32.2836H109.943V39.0898H108.886V38.3264C108.714 38.5717 108.475 38.774 108.169 38.9335C107.868 39.0929 107.522 39.1726 107.13 39.1726C106.689 39.1726 106.284 39.0622 105.917 38.8415C105.555 38.6146 105.267 38.3019 105.053 37.9033C104.844 37.4986 104.74 37.0418 104.74 36.5329ZM108.886 36.5513C108.886 36.2018 108.812 35.8983 108.665 35.6407C108.524 35.3832 108.337 35.187 108.104 35.0521C107.872 34.9172 107.62 34.8497 107.351 34.8497C107.081 34.8497 106.83 34.9172 106.597 35.0521C106.364 35.1808 106.174 35.374 106.027 35.6315C105.886 35.8829 105.816 36.1834 105.816 36.5329C105.816 36.8824 105.886 37.189 106.027 37.4526C106.174 37.7163 106.364 37.9187 106.597 38.0597C106.836 38.1946 107.087 38.262 107.351 38.262C107.62 38.262 107.872 38.1946 108.104 38.0597C108.337 37.9248 108.524 37.7286 108.665 37.471C108.812 37.2074 108.886 36.9008 108.886 36.5513Z" fill="#313131"/>
<path d="M115.961 36.4317C115.961 36.6218 115.949 36.7935 115.925 36.9468H112.055C112.085 37.3515 112.235 37.6765 112.505 37.9217C112.775 38.167 113.106 38.2896 113.498 38.2896C114.062 38.2896 114.46 38.0536 114.693 37.5814H115.823C115.67 38.0474 115.391 38.4307 114.987 38.7311C114.589 39.0254 114.092 39.1726 113.498 39.1726C113.014 39.1726 112.579 39.0653 112.193 38.8507C111.813 38.6299 111.512 38.3234 111.292 37.9309C111.077 37.5324 110.97 37.0725 110.97 36.5513C110.97 36.0301 111.074 35.5733 111.282 35.1808C111.497 34.7823 111.794 34.4757 112.174 34.2611C112.56 34.0465 113.001 33.9392 113.498 33.9392C113.976 33.9392 114.402 34.0434 114.776 34.2519C115.149 34.4604 115.44 34.7547 115.649 35.1348C115.857 35.5089 115.961 35.9412 115.961 36.4317ZM114.867 36.1006C114.861 35.7143 114.723 35.4046 114.454 35.1716C114.184 34.9386 113.85 34.8221 113.452 34.8221C113.09 34.8221 112.781 34.9386 112.523 35.1716C112.266 35.3985 112.113 35.7082 112.064 36.1006H114.867Z" fill="#313131"/>
<path d="M119.548 33.9392C119.946 33.9392 120.302 34.0219 120.614 34.1875C120.933 34.3531 121.181 34.5983 121.359 34.9233C121.537 35.2483 121.625 35.6407 121.625 36.1006V39.0898H120.587V36.257C120.587 35.8032 120.473 35.4568 120.247 35.2176C120.02 34.9724 119.71 34.8497 119.318 34.8497C118.926 34.8497 118.613 34.9724 118.381 35.2176C118.154 35.4568 118.04 35.8032 118.04 36.257V39.0898H116.993V34.0219H118.04V34.6014C118.212 34.3929 118.43 34.2304 118.693 34.1139C118.963 33.9974 119.248 33.9392 119.548 33.9392Z" fill="#313131"/>
<path d="M125.003 33.9392C125.395 33.9392 125.741 34.0189 126.042 34.1783C126.348 34.3316 126.587 34.5247 126.759 34.7578V34.0219H127.816V39.1726C127.816 39.6386 127.718 40.0525 127.521 40.4143C127.325 40.7822 127.04 41.0704 126.667 41.2789C126.299 41.4873 125.858 41.5916 125.343 41.5916C124.657 41.5916 124.087 41.4291 123.633 41.1041C123.18 40.7852 122.922 40.3499 122.861 39.798H123.9C123.979 40.0617 124.148 40.2732 124.405 40.4327C124.669 40.5982 124.981 40.681 125.343 40.681C125.766 40.681 126.106 40.5522 126.363 40.2947C126.627 40.0372 126.759 39.6631 126.759 39.1726V38.3264C126.581 38.5656 126.339 38.7679 126.032 38.9335C125.732 39.0929 125.389 39.1726 125.003 39.1726C124.562 39.1726 124.157 39.0622 123.789 38.8415C123.428 38.6146 123.14 38.3019 122.925 37.9033C122.717 37.4986 122.613 37.0418 122.613 36.5329C122.613 36.024 122.717 35.5733 122.925 35.1808C123.14 34.7884 123.428 34.4849 123.789 34.2703C124.157 34.0495 124.562 33.9392 125.003 33.9392ZM126.759 36.5513C126.759 36.2018 126.685 35.8983 126.538 35.6407C126.397 35.3832 126.21 35.187 125.977 35.0521C125.744 34.9172 125.493 34.8497 125.223 34.8497C124.954 34.8497 124.703 34.9172 124.47 35.0521C124.237 35.1808 124.047 35.374 123.9 35.6315C123.759 35.8829 123.688 36.1834 123.688 36.5329C123.688 36.8824 123.759 37.189 123.9 37.4526C124.047 37.7163 124.237 37.9187 124.47 38.0597C124.709 38.1946 124.96 38.262 125.223 38.262C125.493 38.262 125.744 38.1946 125.977 38.0597C126.21 37.9248 126.397 37.7286 126.538 37.471C126.685 37.2074 126.759 36.9008 126.759 36.5513Z" fill="#313131"/>
<path d="M128.843 36.5329C128.843 36.024 128.947 35.5733 129.155 35.1808C129.37 34.7884 129.658 34.4849 130.019 34.2703C130.387 34.0495 130.791 33.9392 131.233 33.9392C131.631 33.9392 131.977 34.0189 132.271 34.1783C132.572 34.3316 132.811 34.5247 132.988 34.7578V34.0219H134.046V39.0898H132.988V38.3356C132.811 38.5748 132.569 38.774 132.262 38.9335C131.956 39.0929 131.607 39.1726 131.214 39.1726C130.779 39.1726 130.381 39.0622 130.019 38.8415C129.658 38.6146 129.37 38.3019 129.155 37.9033C128.947 37.4986 128.843 37.0418 128.843 36.5329ZM132.988 36.5513C132.988 36.2018 132.915 35.8983 132.768 35.6407C132.627 35.3832 132.44 35.187 132.207 35.0521C131.974 34.9172 131.723 34.8497 131.453 34.8497C131.184 34.8497 130.932 34.9172 130.7 35.0521C130.467 35.1808 130.277 35.374 130.13 35.6315C129.989 35.8829 129.918 36.1834 129.918 36.5329C129.918 36.8824 129.989 37.189 130.13 37.4526C130.277 37.7163 130.467 37.9187 130.7 38.0597C130.939 38.1946 131.19 38.262 131.453 38.262C131.723 38.262 131.974 38.1946 132.207 38.0597C132.44 37.9248 132.627 37.7286 132.768 37.471C132.915 37.2074 132.988 36.9008 132.988 36.5513Z" fill="#313131"/>
<path d="M137.977 33.9392C138.376 33.9392 138.731 34.0219 139.044 34.1875C139.362 34.3531 139.611 34.5983 139.788 34.9233C139.966 35.2483 140.055 35.6407 140.055 36.1006V39.0898H139.016V36.257C139.016 35.8032 138.903 35.4568 138.676 35.2176C138.449 34.9724 138.14 34.8497 137.748 34.8497C137.355 34.8497 137.043 34.9724 136.81 35.2176C136.583 35.4568 136.47 35.8032 136.47 36.257V39.0898H135.422V34.0219H136.47V34.6014C136.641 34.3929 136.859 34.2304 137.122 34.1139C137.392 33.9974 137.677 33.9392 137.977 33.9392Z" fill="#313131"/>
<path d="M147.3 39.0898L144.827 36.2294V39.0898H143.779V32.6975H144.827V35.6131L147.309 32.6975H148.624L145.848 35.8983L148.67 39.0898H147.3Z" fill="#313131"/>
<path d="M154.183 34.0219V39.0898H153.135V38.492C152.97 38.7005 152.752 38.866 152.483 38.9886C152.219 39.1051 151.937 39.1634 151.637 39.1634C151.239 39.1634 150.88 39.0806 150.561 38.9151C150.249 38.7495 150.001 38.5042 149.817 38.1793C149.639 37.8543 149.55 37.4618 149.55 37.002V34.0219H150.589V36.8456C150.589 37.2994 150.702 37.6489 150.929 37.8941C151.156 38.1333 151.465 38.2528 151.858 38.2528C152.25 38.2528 152.559 38.1333 152.786 37.8941C153.019 37.6489 153.135 37.2994 153.135 36.8456V34.0219H154.183Z" fill="#313131"/>
<path d="M156.614 32.2836V39.0898H155.566V32.2836H156.614Z" fill="#313131"/>
<path d="M158.523 33.3505C158.333 33.3505 158.173 33.2861 158.045 33.1574C157.916 33.0286 157.852 32.8692 157.852 32.6791C157.852 32.489 157.916 32.3296 158.045 32.2008C158.173 32.072 158.333 32.0077 158.523 32.0077C158.707 32.0077 158.863 32.072 158.991 32.2008C159.12 32.3296 159.185 32.489 159.185 32.6791C159.185 32.8692 159.12 33.0286 158.991 33.1574C158.863 33.2861 158.707 33.3505 158.523 33.3505ZM159.037 34.0219V39.0898H157.99V34.0219H159.037Z" fill="#313131"/>
<path d="M166.285 32.6975V37.3055C166.285 37.8757 166.11 38.3264 165.761 38.6575C165.418 38.9886 164.964 39.1542 164.401 39.1542C163.837 39.1542 163.38 38.9886 163.031 38.6575C162.688 38.3264 162.516 37.8757 162.516 37.3055H163.573C163.579 37.5875 163.65 37.8114 163.785 37.9769C163.926 38.1425 164.131 38.2252 164.401 38.2252C164.67 38.2252 164.875 38.1425 165.016 37.9769C165.157 37.8052 165.228 37.5814 165.228 37.3055V32.6975H166.285Z" fill="#313131"/>
<path d="M167.64 36.5329C167.64 36.024 167.745 35.5733 167.953 35.1808C168.167 34.7884 168.455 34.4849 168.817 34.2703C169.185 34.0495 169.589 33.9392 170.03 33.9392C170.429 33.9392 170.775 34.0189 171.069 34.1783C171.369 34.3316 171.608 34.5247 171.786 34.7578V34.0219H172.843V39.0898H171.786V38.3356C171.608 38.5748 171.366 38.774 171.06 38.9335C170.753 39.0929 170.404 39.1726 170.012 39.1726C169.577 39.1726 169.179 39.0622 168.817 38.8415C168.455 38.6146 168.167 38.3019 167.953 37.9033C167.745 37.4986 167.64 37.0418 167.64 36.5329ZM171.786 36.5513C171.786 36.2018 171.713 35.8983 171.565 35.6407C171.424 35.3832 171.238 35.187 171.005 35.0521C170.772 34.9172 170.521 34.8497 170.251 34.8497C169.981 34.8497 169.73 34.9172 169.497 35.0521C169.264 35.1808 169.074 35.374 168.927 35.6315C168.786 35.8829 168.716 36.1834 168.716 36.5329C168.716 36.8824 168.786 37.189 168.927 37.4526C169.074 37.7163 169.264 37.9187 169.497 38.0597C169.736 38.1946 169.987 38.262 170.251 38.262C170.521 38.262 170.772 38.1946 171.005 38.0597C171.238 37.9248 171.424 37.7286 171.565 37.471C171.713 37.2074 171.786 36.9008 171.786 36.5513Z" fill="#313131"/>
<path d="M181.022 34.0219L179.45 39.0898H178.347L177.327 35.3464L176.306 39.0898H175.203L173.622 34.0219H174.688L175.745 38.0965L176.821 34.0219H177.915L178.944 38.0781L179.992 34.0219H181.022Z" fill="#313131"/>
<path d="M181.456 36.5329C181.456 36.024 181.56 35.5733 181.768 35.1808C181.983 34.7884 182.271 34.4849 182.632 34.2703C183 34.0495 183.404 33.9392 183.846 33.9392C184.244 33.9392 184.59 34.0189 184.884 34.1783C185.185 34.3316 185.424 34.5247 185.601 34.7578V34.0219H186.658V39.0898H185.601V38.3356C185.424 38.5748 185.182 38.774 184.875 38.9335C184.569 39.0929 184.219 39.1726 183.827 39.1726C183.392 39.1726 182.994 39.0622 182.632 38.8415C182.271 38.6146 181.983 38.3019 181.768 37.9033C181.56 37.4986 181.456 37.0418 181.456 36.5329ZM185.601 36.5513C185.601 36.2018 185.528 35.8983 185.381 35.6407C185.24 35.3832 185.053 35.187 184.82 35.0521C184.587 34.9172 184.336 34.8497 184.066 34.8497C183.797 34.8497 183.545 34.9172 183.312 35.0521C183.08 35.1808 182.89 35.374 182.743 35.6315C182.602 35.8829 182.531 36.1834 182.531 36.5329C182.531 36.8824 182.602 37.189 182.743 37.4526C182.89 37.7163 183.08 37.9187 183.312 38.0597C183.551 38.1946 183.803 38.262 184.066 38.262C184.336 38.262 184.587 38.1946 184.82 38.0597C185.053 37.9248 185.24 37.7286 185.381 37.471C185.528 37.2074 185.601 36.9008 185.601 36.5513Z" fill="#313131"/>
</g>
</svg>
