<svg width="1400" height="334" viewBox="0 0 1400 334" fill="none" xmlns="http://www.w3.org/2000/svg">
<path fill-rule="evenodd" clip-rule="evenodd" d="M148 17C123.147 17 103 37.1472 103 62V253C103 277.853 123.147 298 148 298C172.853 298 193 277.853 193 253V104H206V253C206 277.853 226.147 298 251 298C275.853 298 296 277.853 296 253V62C296 37.1472 275.853 17 251 17H226H173H148ZM0 146C0 121.147 20.1472 101 45 101H90V289C90 313.853 69.8528 334 45 334H0V146ZM309 101H354C378.853 101 399 121.147 399 146V334H354C329.147 334 309 313.853 309 289V101Z" fill="#313131"/>
<rect x="103" y="310" width="193" height="24" rx="12" fill="#04B0D6"/>
<path d="M399 43.1053C399 51.6307 396.361 59.9646 391.416 67.0533C386.471 74.1419 379.443 79.6668 371.221 82.9293C362.998 86.1919 353.95 87.0455 345.221 85.3823C336.492 83.719 328.474 79.6137 322.18 73.5853C315.887 67.5569 311.601 59.8763 309.865 51.5147C308.128 43.1531 309.019 34.486 312.425 26.6096C315.831 18.7331 321.599 12.001 328.999 7.26455C336.4 2.52808 345.1 -1.01665e-07 354 0L354 43.1053H399Z" fill="#14F4BF"/>
<path d="M529.512 185.304H499.304L494.824 199H465L498.152 108.376H530.92L563.944 199H533.992L529.512 185.304ZM522.6 163.928L514.408 138.712L506.216 163.928H522.6ZM615.968 199L598.944 166.488H598.816V199H570.4V108.376H612.64C619.979 108.376 626.251 109.699 631.456 112.344C636.661 114.904 640.544 118.445 643.104 122.968C645.749 127.405 647.072 132.44 647.072 138.072C647.072 144.131 645.365 149.507 641.952 154.2C638.624 158.893 633.803 162.264 627.488 164.312L647.2 199H615.968ZM598.816 147.544H610.08C612.811 147.544 614.859 146.947 616.224 145.752C617.589 144.472 618.272 142.509 618.272 139.864C618.272 137.475 617.547 135.597 616.096 134.232C614.731 132.867 612.725 132.184 610.08 132.184H598.816V147.544ZM711.958 143.576V167H652.31V143.576H711.958ZM775.468 199L758.444 166.488H758.316V199H729.9V108.376H772.14C779.479 108.376 785.751 109.699 790.956 112.344C796.161 114.904 800.044 118.445 802.604 122.968C805.249 127.405 806.572 132.44 806.572 138.072C806.572 144.131 804.865 149.507 801.452 154.2C798.124 158.893 793.303 162.264 786.988 164.312L806.7 199H775.468ZM758.316 147.544H769.58C772.311 147.544 774.359 146.947 775.724 145.752C777.089 144.472 777.772 142.509 777.772 139.864C777.772 137.475 777.047 135.597 775.596 134.232C774.231 132.867 772.225 132.184 769.58 132.184H758.316V147.544ZM859.81 199.896C851.277 199.896 843.426 197.891 836.258 193.88C829.175 189.869 823.543 184.323 819.362 177.24C815.181 170.157 813.09 162.179 813.09 153.304C813.09 144.429 815.181 136.451 819.362 129.368C823.543 122.285 829.175 116.781 836.258 112.856C843.426 108.845 851.277 106.84 859.81 106.84C868.343 106.84 876.151 108.845 883.234 112.856C890.317 116.781 895.906 122.285 900.002 129.368C904.183 136.451 906.274 144.429 906.274 153.304C906.274 162.179 904.183 170.157 900.002 177.24C895.906 184.323 890.274 189.869 883.106 193.88C876.023 197.891 868.258 199.896 859.81 199.896ZM859.81 173.4C865.442 173.4 869.794 171.608 872.866 168.024C875.938 164.355 877.474 159.448 877.474 153.304C877.474 147.075 875.938 142.168 872.866 138.584C869.794 134.915 865.442 133.08 859.81 133.08C854.093 133.08 849.698 134.915 846.626 138.584C843.554 142.168 842.018 147.075 842.018 153.304C842.018 159.448 843.554 164.355 846.626 168.024C849.698 171.608 854.093 173.4 859.81 173.4ZM1025.45 108.376V199H997.165V153.816L983.213 199H958.893L944.941 153.816V199H916.525V108.376H951.341L971.309 162.776L990.765 108.376H1025.45ZM1066.05 108.376V159.448C1066.05 163.629 1066.95 166.957 1068.74 169.432C1070.62 171.821 1073.6 173.016 1077.7 173.016C1081.8 173.016 1084.82 171.821 1086.79 169.432C1088.75 166.957 1089.73 163.629 1089.73 159.448V108.376H1118.02V159.448C1118.02 168.067 1116.23 175.448 1112.64 181.592C1109.06 187.651 1104.15 192.216 1097.92 195.288C1091.69 198.36 1084.74 199.896 1077.06 199.896C1069.38 199.896 1062.55 198.36 1056.58 195.288C1050.69 192.216 1046.08 187.651 1042.76 181.592C1039.43 175.533 1037.76 168.152 1037.76 159.448V108.376H1066.05ZM1165.73 199.896C1154.89 199.896 1145.93 197.379 1138.85 192.344C1131.85 187.224 1128.06 179.757 1127.46 169.944H1157.67C1158.09 175.149 1160.4 177.752 1164.58 177.752C1166.12 177.752 1167.4 177.411 1168.42 176.728C1169.53 175.96 1170.08 174.808 1170.08 173.272C1170.08 171.139 1168.93 169.432 1166.63 168.152C1164.32 166.787 1160.74 165.251 1155.88 163.544C1150.07 161.496 1145.25 159.491 1141.41 157.528C1137.66 155.565 1134.41 152.707 1131.68 148.952C1128.95 145.197 1127.63 140.376 1127.72 134.488C1127.72 128.6 1129.21 123.608 1132.2 119.512C1135.27 115.331 1139.41 112.173 1144.61 110.04C1149.9 107.907 1155.83 106.84 1162.4 106.84C1173.5 106.84 1182.29 109.4 1188.77 114.52C1195.34 119.64 1198.8 126.851 1199.14 136.152H1168.55C1168.46 133.592 1167.82 131.757 1166.63 130.648C1165.43 129.539 1163.98 128.984 1162.28 128.984C1161.08 128.984 1160.1 129.411 1159.33 130.264C1158.56 131.032 1158.18 132.141 1158.18 133.592C1158.18 135.64 1159.29 137.347 1161.51 138.712C1163.81 139.992 1167.44 141.571 1172.39 143.448C1178.1 145.581 1182.8 147.629 1186.47 149.592C1190.22 151.555 1193.46 154.285 1196.19 157.784C1198.93 161.283 1200.29 165.677 1200.29 170.968C1200.29 176.515 1198.93 181.507 1196.19 185.944C1193.46 190.296 1189.5 193.709 1184.29 196.184C1179.09 198.659 1172.9 199.896 1165.73 199.896ZM1294.12 108.376V199H1265.7V163.672H1238.69V199H1210.28V108.376H1238.69V141.016H1265.7V108.376H1294.12ZM1365.01 185.304H1334.8L1330.32 199H1300.5L1333.65 108.376H1366.42L1399.44 199H1369.49L1365.01 185.304ZM1358.1 163.928L1349.91 138.712L1341.72 163.928H1358.1Z" fill="#313131"/>
<path d="M493.608 249.152C495.997 249.579 498.024 250.837 499.688 252.928C501.352 255.019 502.184 257.387 502.184 260.032C502.184 262.293 501.587 264.341 500.392 266.176C499.24 267.968 497.555 269.397 495.336 270.464C493.117 271.488 490.536 272 487.592 272H469.8V227.52H486.76C489.789 227.52 492.392 228.032 494.568 229.056C496.744 230.08 498.387 231.467 499.496 233.216C500.605 234.923 501.16 236.843 501.16 238.976C501.16 241.536 500.477 243.669 499.112 245.376C497.747 247.083 495.912 248.341 493.608 249.152ZM477.096 246.208H486.12C488.509 246.208 490.365 245.675 491.688 244.608C493.053 243.499 493.736 241.92 493.736 239.872C493.736 237.867 493.053 236.309 491.688 235.2C490.365 234.048 488.509 233.472 486.12 233.472H477.096V246.208ZM486.952 266.048C489.427 266.048 491.368 265.451 492.776 264.256C494.184 263.061 494.888 261.397 494.888 259.264C494.888 257.088 494.141 255.36 492.648 254.08C491.155 252.8 489.171 252.16 486.696 252.16H477.096V266.048H486.952ZM542.433 253.504C542.433 254.827 542.347 256.021 542.177 257.088H515.233C515.446 259.904 516.491 262.165 518.369 263.872C520.246 265.579 522.55 266.432 525.281 266.432C529.206 266.432 531.979 264.789 533.601 261.504H541.472C540.406 264.747 538.465 267.413 535.649 269.504C532.875 271.552 529.419 272.576 525.281 272.576C521.91 272.576 518.881 271.829 516.193 270.336C513.547 268.8 511.457 266.667 509.921 263.936C508.427 261.163 507.681 257.963 507.681 254.336C507.681 250.709 508.406 247.531 509.857 244.8C511.35 242.027 513.419 239.893 516.065 238.4C518.753 236.907 521.825 236.16 525.281 236.16C528.609 236.16 531.574 236.885 534.177 238.336C536.779 239.787 538.806 241.835 540.257 244.48C541.707 247.083 542.433 250.091 542.433 253.504ZM534.817 251.2C534.774 248.512 533.814 246.357 531.937 244.736C530.059 243.115 527.734 242.304 524.961 242.304C522.443 242.304 520.289 243.115 518.497 244.736C516.705 246.315 515.638 248.469 515.297 251.2H534.817ZM556.909 241.856C557.975 240.064 559.383 238.677 561.133 237.696C562.925 236.672 565.037 236.16 567.469 236.16V243.712H565.613C562.754 243.712 560.578 244.437 559.085 245.888C557.634 247.339 556.909 249.856 556.909 253.44V272H549.613V236.736H556.909V241.856ZM577.887 232.064C576.564 232.064 575.455 231.616 574.559 230.72C573.663 229.824 573.215 228.715 573.215 227.392C573.215 226.069 573.663 224.96 574.559 224.064C575.455 223.168 576.564 222.72 577.887 222.72C579.167 222.72 580.255 223.168 581.151 224.064C582.047 224.96 582.495 226.069 582.495 227.392C582.495 228.715 582.047 229.824 581.151 230.72C580.255 231.616 579.167 232.064 577.887 232.064ZM581.471 278.912C581.471 282.368 580.596 284.864 578.847 286.4C577.14 287.979 574.644 288.768 571.359 288.768H567.583V282.624H570.079C571.572 282.624 572.618 282.325 573.215 281.728C573.855 281.173 574.175 280.235 574.175 278.912V236.736H581.471V278.912ZM588.618 254.208C588.618 250.667 589.343 247.531 590.794 244.8C592.287 242.069 594.293 239.957 596.81 238.464C599.37 236.928 602.186 236.16 605.258 236.16C608.031 236.16 610.442 236.715 612.49 237.824C614.581 238.891 616.245 240.235 617.482 241.856V236.736H624.842V272H617.482V266.752C616.245 268.416 614.559 269.803 612.426 270.912C610.293 272.021 607.861 272.576 605.13 272.576C602.101 272.576 599.327 271.808 596.81 270.272C594.293 268.693 592.287 266.517 590.794 263.744C589.343 260.928 588.618 257.749 588.618 254.208ZM617.482 254.336C617.482 251.904 616.97 249.792 615.946 248C614.965 246.208 613.663 244.843 612.042 243.904C610.421 242.965 608.671 242.496 606.794 242.496C604.917 242.496 603.167 242.965 601.546 243.904C599.925 244.8 598.602 246.144 597.578 247.936C596.597 249.685 596.106 251.776 596.106 254.208C596.106 256.64 596.597 258.773 597.578 260.608C598.602 262.443 599.925 263.851 601.546 264.832C603.21 265.771 604.959 266.24 606.794 266.24C608.671 266.24 610.421 265.771 612.042 264.832C613.663 263.893 614.965 262.528 615.946 260.736C616.97 258.901 617.482 256.768 617.482 254.336ZM666.169 236.736L644.537 288.576H636.985L644.153 271.424L630.265 236.736H638.393L648.313 263.616L658.617 236.736H666.169ZM669.243 254.208C669.243 250.667 669.968 247.531 671.419 244.8C672.912 242.069 674.918 239.957 677.435 238.464C679.995 236.928 682.811 236.16 685.883 236.16C688.656 236.16 691.067 236.715 693.115 237.824C695.206 238.891 696.87 240.235 698.107 241.856V236.736H705.467V272H698.107V266.752C696.87 268.416 695.184 269.803 693.051 270.912C690.918 272.021 688.486 272.576 685.755 272.576C682.726 272.576 679.952 271.808 677.435 270.272C674.918 268.693 672.912 266.517 671.419 263.744C669.968 260.928 669.243 257.749 669.243 254.208ZM698.107 254.336C698.107 251.904 697.595 249.792 696.571 248C695.59 246.208 694.288 244.843 692.667 243.904C691.046 242.965 689.296 242.496 687.419 242.496C685.542 242.496 683.792 242.965 682.171 243.904C680.55 244.8 679.227 246.144 678.203 247.936C677.222 249.685 676.731 251.776 676.731 254.208C676.731 256.64 677.222 258.773 678.203 260.608C679.227 262.443 680.55 263.851 682.171 264.832C683.835 265.771 685.584 266.24 687.419 266.24C689.296 266.24 691.046 265.771 692.667 264.832C694.288 263.893 695.59 262.528 696.571 260.736C697.595 258.901 698.107 256.768 698.107 254.336ZM729.243 254.208C729.243 250.667 729.968 247.531 731.419 244.8C732.912 242.069 734.918 239.957 737.435 238.464C739.995 236.928 742.832 236.16 745.947 236.16C748.251 236.16 750.512 236.672 752.731 237.696C754.992 238.677 756.784 240 758.107 241.664V224.64H765.467V272H758.107V266.688C756.912 268.395 755.248 269.803 753.115 270.912C751.024 272.021 748.614 272.576 745.883 272.576C742.811 272.576 739.995 271.808 737.435 270.272C734.918 268.693 732.912 266.517 731.419 263.744C729.968 260.928 729.243 257.749 729.243 254.208ZM758.107 254.336C758.107 251.904 757.595 249.792 756.571 248C755.59 246.208 754.288 244.843 752.667 243.904C751.046 242.965 749.296 242.496 747.419 242.496C745.542 242.496 743.792 242.965 742.171 243.904C740.55 244.8 739.227 246.144 738.203 247.936C737.222 249.685 736.731 251.776 736.731 254.208C736.731 256.64 737.222 258.773 738.203 260.608C739.227 262.443 740.55 263.851 742.171 264.832C743.835 265.771 745.584 266.24 747.419 266.24C749.296 266.24 751.046 265.771 752.667 264.832C754.288 263.893 755.59 262.528 756.571 260.736C757.595 258.901 758.107 256.768 758.107 254.336ZM807.37 253.504C807.37 254.827 807.285 256.021 807.114 257.088H780.17C780.383 259.904 781.429 262.165 783.306 263.872C785.183 265.579 787.487 266.432 790.218 266.432C794.143 266.432 796.917 264.789 798.538 261.504H806.41C805.343 264.747 803.402 267.413 800.586 269.504C797.813 271.552 794.357 272.576 790.218 272.576C786.847 272.576 783.818 271.829 781.13 270.336C778.485 268.8 776.394 266.667 774.858 263.936C773.365 261.163 772.618 257.963 772.618 254.336C772.618 250.709 773.343 247.531 774.794 244.8C776.287 242.027 778.357 239.893 781.002 238.4C783.69 236.907 786.762 236.16 790.218 236.16C793.546 236.16 796.511 236.885 799.114 238.336C801.717 239.787 803.743 241.835 805.194 244.48C806.645 247.083 807.37 250.091 807.37 253.504ZM799.754 251.2C799.711 248.512 798.751 246.357 796.874 244.736C794.997 243.115 792.671 242.304 789.898 242.304C787.381 242.304 785.226 243.115 783.434 244.736C781.642 246.315 780.575 248.469 780.234 251.2H799.754ZM832.342 236.16C835.115 236.16 837.59 236.736 839.766 237.888C841.985 239.04 843.713 240.747 844.95 243.008C846.187 245.269 846.806 248 846.806 251.2V272H839.574V252.288C839.574 249.131 838.785 246.72 837.206 245.056C835.627 243.349 833.473 242.496 830.742 242.496C828.011 242.496 825.835 243.349 824.214 245.056C822.635 246.72 821.846 249.131 821.846 252.288V272H814.55V236.736H821.846V240.768C823.041 239.317 824.555 238.187 826.39 237.376C828.267 236.565 830.251 236.16 832.342 236.16ZM870.321 236.16C873.051 236.16 875.462 236.715 877.553 237.824C879.686 238.891 881.35 240.235 882.545 241.856V236.736H889.905V272.576C889.905 275.819 889.222 278.699 887.857 281.216C886.491 283.776 884.507 285.781 881.905 287.232C879.345 288.683 876.273 289.408 872.689 289.408C867.91 289.408 863.942 288.277 860.785 286.016C857.627 283.797 855.835 280.768 855.409 276.928H862.641C863.195 278.763 864.369 280.235 866.161 281.344C867.995 282.496 870.171 283.072 872.689 283.072C875.633 283.072 878.001 282.176 879.793 280.384C881.627 278.592 882.545 275.989 882.545 272.576V266.688C881.307 268.352 879.622 269.76 877.489 270.912C875.398 272.021 873.009 272.576 870.321 272.576C867.249 272.576 864.433 271.808 861.873 270.272C859.355 268.693 857.35 266.517 855.857 263.744C854.406 260.928 853.681 257.749 853.681 254.208C853.681 250.667 854.406 247.531 855.857 244.8C857.35 242.069 859.355 239.957 861.873 238.464C864.433 236.928 867.249 236.16 870.321 236.16ZM882.545 254.336C882.545 251.904 882.033 249.792 881.009 248C880.027 246.208 878.726 244.843 877.105 243.904C875.483 242.965 873.734 242.496 871.857 242.496C869.979 242.496 868.23 242.965 866.609 243.904C864.987 244.8 863.665 246.144 862.641 247.936C861.659 249.685 861.169 251.776 861.169 254.208C861.169 256.64 861.659 258.773 862.641 260.608C863.665 262.443 864.987 263.851 866.609 264.832C868.273 265.771 870.022 266.24 871.857 266.24C873.734 266.24 875.483 265.771 877.105 264.832C878.726 263.893 880.027 262.528 881.009 260.736C882.033 258.901 882.545 256.768 882.545 254.336ZM897.056 254.208C897.056 250.667 897.781 247.531 899.232 244.8C900.725 242.069 902.73 239.957 905.248 238.464C907.808 236.928 910.624 236.16 913.696 236.16C916.469 236.16 918.88 236.715 920.928 237.824C923.018 238.891 924.682 240.235 925.92 241.856V236.736H933.28V272H925.92V266.752C924.682 268.416 922.997 269.803 920.864 270.912C918.73 272.021 916.298 272.576 913.568 272.576C910.538 272.576 907.765 271.808 905.248 270.272C902.73 268.693 900.725 266.517 899.232 263.744C897.781 260.928 897.056 257.749 897.056 254.208ZM925.92 254.336C925.92 251.904 925.408 249.792 924.384 248C923.402 246.208 922.101 244.843 920.48 243.904C918.858 242.965 917.109 242.496 915.232 242.496C913.354 242.496 911.605 242.965 909.984 243.904C908.362 244.8 907.04 246.144 906.016 247.936C905.034 249.685 904.544 251.776 904.544 254.208C904.544 256.64 905.034 258.773 906.016 260.608C907.04 262.443 908.362 263.851 909.984 264.832C911.648 265.771 913.397 266.24 915.232 266.24C917.109 266.24 918.858 265.771 920.48 264.832C922.101 263.893 923.402 262.528 924.384 260.736C925.408 258.901 925.92 256.768 925.92 254.336ZM960.655 236.16C963.428 236.16 965.903 236.736 968.079 237.888C970.297 239.04 972.025 240.747 973.263 243.008C974.5 245.269 975.119 248 975.119 251.2V272H967.887V252.288C967.887 249.131 967.097 246.72 965.519 245.056C963.94 243.349 961.785 242.496 959.055 242.496C956.324 242.496 954.148 243.349 952.527 245.056C950.948 246.72 950.159 249.131 950.159 252.288V272H942.863V236.736H950.159V240.768C951.353 239.317 952.868 238.187 954.703 237.376C956.58 236.565 958.564 236.16 960.655 236.16ZM1025.56 272L1008.35 252.096V272H1001.05V227.52H1008.35V247.808L1025.63 227.52H1034.78L1015.45 249.792L1035.1 272H1025.56ZM1073.49 236.736V272H1066.19V267.84C1065.04 269.291 1063.52 270.443 1061.65 271.296C1059.81 272.107 1057.85 272.512 1055.76 272.512C1052.98 272.512 1050.49 271.936 1048.27 270.784C1046.09 269.632 1044.37 267.925 1043.09 265.664C1041.85 263.403 1041.23 260.672 1041.23 257.472V236.736H1048.46V256.384C1048.46 259.541 1049.25 261.973 1050.83 263.68C1052.41 265.344 1054.56 266.176 1057.29 266.176C1060.02 266.176 1062.18 265.344 1063.76 263.68C1065.38 261.973 1066.19 259.541 1066.19 256.384V236.736H1073.49ZM1090.41 224.64V272H1083.11V224.64H1090.41ZM1103.7 232.064C1102.38 232.064 1101.27 231.616 1100.37 230.72C1099.48 229.824 1099.03 228.715 1099.03 227.392C1099.03 226.069 1099.48 224.96 1100.37 224.064C1101.27 223.168 1102.38 222.72 1103.7 222.72C1104.98 222.72 1106.07 223.168 1106.96 224.064C1107.86 224.96 1108.31 226.069 1108.31 227.392C1108.31 228.715 1107.86 229.824 1106.96 230.72C1106.07 231.616 1104.98 232.064 1103.7 232.064ZM1107.28 236.736V272H1099.99V236.736H1107.28ZM1157.74 227.52V259.584C1157.74 263.552 1156.53 266.688 1154.1 268.992C1151.71 271.296 1148.55 272.448 1144.62 272.448C1140.7 272.448 1137.52 271.296 1135.09 268.992C1132.7 266.688 1131.5 263.552 1131.5 259.584H1138.86C1138.91 261.547 1139.4 263.104 1140.34 264.256C1141.32 265.408 1142.75 265.984 1144.62 265.984C1146.5 265.984 1147.93 265.408 1148.91 264.256C1149.89 263.061 1150.38 261.504 1150.38 259.584V227.52H1157.74ZM1167.18 254.208C1167.18 250.667 1167.91 247.531 1169.36 244.8C1170.85 242.069 1172.86 239.957 1175.37 238.464C1177.93 236.928 1180.75 236.16 1183.82 236.16C1186.59 236.16 1189 236.715 1191.05 237.824C1193.14 238.891 1194.81 240.235 1196.04 241.856V236.736H1203.4V272H1196.04V266.752C1194.81 268.416 1193.12 269.803 1190.99 270.912C1188.86 272.021 1186.42 272.576 1183.69 272.576C1180.66 272.576 1177.89 271.808 1175.37 270.272C1172.86 268.693 1170.85 266.517 1169.36 263.744C1167.91 260.928 1167.18 257.749 1167.18 254.208ZM1196.04 254.336C1196.04 251.904 1195.53 249.792 1194.51 248C1193.53 246.208 1192.23 244.843 1190.6 243.904C1188.98 242.965 1187.23 242.496 1185.36 242.496C1183.48 242.496 1181.73 242.965 1180.11 243.904C1178.49 244.8 1177.16 246.144 1176.14 247.936C1175.16 249.685 1174.67 251.776 1174.67 254.208C1174.67 256.64 1175.16 258.773 1176.14 260.608C1177.16 262.443 1178.49 263.851 1180.11 264.832C1181.77 265.771 1183.52 266.24 1185.36 266.24C1187.23 266.24 1188.98 265.771 1190.6 264.832C1192.23 263.893 1193.53 262.528 1194.51 260.736C1195.53 258.901 1196.04 256.768 1196.04 254.336ZM1260.35 236.736L1249.4 272H1241.72L1234.62 245.952L1227.52 272H1219.84L1208.83 236.736H1216.25L1223.61 265.088L1231.1 236.736H1238.72L1245.88 264.96L1253.18 236.736H1260.35ZM1263.37 254.208C1263.37 250.667 1264.09 247.531 1265.54 244.8C1267.04 242.069 1269.04 239.957 1271.56 238.464C1274.12 236.928 1276.94 236.16 1280.01 236.16C1282.78 236.16 1285.19 236.715 1287.24 237.824C1289.33 238.891 1290.99 240.235 1292.23 241.856V236.736H1299.59V272H1292.23V266.752C1290.99 268.416 1289.31 269.803 1287.18 270.912C1285.04 272.021 1282.61 272.576 1279.88 272.576C1276.85 272.576 1274.08 271.808 1271.56 270.272C1269.04 268.693 1267.04 266.517 1265.54 263.744C1264.09 260.928 1263.37 257.749 1263.37 254.208ZM1292.23 254.336C1292.23 251.904 1291.72 249.792 1290.7 248C1289.71 246.208 1288.41 244.843 1286.79 243.904C1285.17 242.965 1283.42 242.496 1281.54 242.496C1279.67 242.496 1277.92 242.965 1276.3 243.904C1274.67 244.8 1273.35 246.144 1272.33 247.936C1271.35 249.685 1270.86 251.776 1270.86 254.208C1270.86 256.64 1271.35 258.773 1272.33 260.608C1273.35 262.443 1274.67 263.851 1276.3 264.832C1277.96 265.771 1279.71 266.24 1281.54 266.24C1283.42 266.24 1285.17 265.771 1286.79 264.832C1288.41 263.893 1289.71 262.528 1290.7 260.736C1291.72 258.901 1292.23 256.768 1292.23 254.336Z" fill="#313131"/>
</svg>
